<!-- GitHub -->
<svg xmlns="http://www.w3.org/2000/svg" viewBox="0 0 32 32" width="32" height="32"><circle cx="16" cy="16" r="16" fill="#181717"/><path fill="#fff" d="M16 7c-5 0-9 4-9 9 0 4 2.6 7.4 6.2 8.6.5.1.7-.2.7-.5v-1.7c-2.5.5-3-1.2-3-1.2-.4-1-1-1.3-1-1.3-.8-.6.1-.6.1-.6.9.1 1.4.9 1.4.9.8 1.4 2.1 1 2.6.8.1-.6.3-1 .5-1.2-2-.2-4-1-4-4.3 0-1 .4-1.8 1-2.5-.1-.2-.4-1.1.1-2.2 0 0 .8-.3 2.6 1a9 9 0 0 1 4.8 0c1.8-1.3 2.6-1 2.6-1 .5 1.1.2 2 .1 2.2.6.7 1 1.5 1 2.5 0 3.3-2 4-4 4.3.3.3.6.8.6 1.7v2.5c0 .3.2.6.7.5C22.4 23.4 25 20 25 16c0-5-4-9-9-9z"/></svg>
